# xmcd CD database file
#
# Track frame offsets:
#	182
#	13535
#	24630
#	36832
#	51995
#	65052
#	81450
#	94420
#	107320
#	120472
#	133910
#	148797
#	161625
#	172687
#
# Disc length: 2547 seconds
#
# Revision: 1
# Processed by: cddbd v1.5.1PL0 Copyright (c) Steve Scherf et al.
# Submitted via: CDex 1.51
#
DISCID=bf09f10e
DTITLE=Qualis - Love Melodies
DYEAR=1994
DGENRE=Blues
TTITLE0=Shirley Bassey - The lady is a tramp
TTITLE1=Jackei Wilson - To be loved
TTITLE2=Dinha Washington - Unforgetable
TTITLE3=Glenn Miller - Moonlight serenade
TTITLE4=B.J.Thomas - Raindrops keep falling on my head
TTITLE5=Ray Charles - Georgia on my mind
TTITLE6=Billie Holiday - Without your love
TTITLE7=Eydie Gorme - Esta tarde vi llover
TTITLE8=The four aces - Love is a many splendored thing
TTITLE9=The Mamas and The Papas - Dedicated to the one I love
TTITLE10=Harold Melvin and Blue Notes - If you don't know me by now
TTITLE11=Nat King Cole - Besame mucho
TTITLE12=The Drifters - This magic moment
TTITLE13=B.J.Thomas - Rock'n roll lullaby
EXTD=YEAR: 1994
EXTT0=
EXTT1=
EXTT2=
EXTT3=
EXTT4=
EXTT5=
EXTT6=
EXTT7=
EXTT8=
EXTT9=
EXTT10=
EXTT11=
EXTT12=
EXTT13=
PLAYORDER=
